<svg width="18" height="18" viewBox="0 0 18 18" fill="none" xmlns="http://www.w3.org/2000/svg">
<path d="M12.375 0H5.625C4.13316 0 2.70242 0.592632 1.64752 1.64752C0.592632 2.70242 0 4.13316 0 5.625L0 12.375C0 13.8668 0.592632 15.2976 1.64752 16.3525C2.70242 17.4074 4.13316 18 5.625 18H12.375C13.8668 18 15.2976 17.4074 16.3525 16.3525C17.4074 15.2976 18 13.8668 18 12.375V5.625C18 4.13316 17.4074 2.70242 16.3525 1.64752C15.2976 0.592632 13.8668 0 12.375 0V0ZM16.3125 12.375C16.3125 14.5463 14.5463 16.3125 12.375 16.3125H5.625C3.45375 16.3125 1.6875 14.5463 1.6875 12.375V5.625C1.6875 3.45375 3.45375 1.6875 5.625 1.6875H12.375C14.5463 1.6875 16.3125 3.45375 16.3125 5.625V12.375Z" fill="#F7F7F7"/>
</svg>
